# xmcd
#
# Track frame offsets: 
#        150
#        15360
#        31147
#        55662
#        72402
#        88142
#        112065
#        137562
#
# Disc length: 2219 seconds
#
# Revision: 5
# Processed by: cddbd v1.5.2PL0 Copyright (c) Steve Scherf et al.
# Submitted via: ExactAudioCopy v0.99pb5
#
DISCID=6308a908
DTITLE=Junior Kimbrough - God Knows I Tried
DYEAR=1998
DGENRE=Delta Blues
TTITLE0=You're Gonna Find Your Mistake
TTITLE1=How Do You Feel
TTITLE2=I Gotta Try You Girl
TTITLE3=I'm In Love With You
TTITLE4=I Cried Last Night
TTITLE5=Keep On Braggin'
TTITLE6=Tramp
TTITLE7=All Night Long (instrumental)
EXTD=
EXTT0=
EXTT1=
EXTT2=
EXTT3=
EXTT4=
EXTT5=
EXTT6=
EXTT7=
PLAYORDER=
